<svg width="28" height="28" viewBox="0 0 28 28" fill="none" xmlns="http://www.w3.org/2000/svg">
<path d="M13.9999 2.33333C20.4434 2.33333 25.6666 7.5565 25.6666 14C25.6666 16.492 24.8849 18.802 23.5538 20.6978L19.8333 14H23.3333C23.3331 11.8489 22.5899 9.76391 21.2294 8.0977C19.8689 6.4315 17.9746 5.28639 15.867 4.85608C13.7594 4.42578 11.5678 4.73669 9.66304 5.73623C7.75828 6.73576 6.25725 8.36256 5.41386 10.3414C4.57048 12.3203 4.43653 14.5297 5.03466 16.596C5.63279 18.6623 6.92629 20.4585 8.69635 21.6808C10.4664 22.9032 12.6043 23.4766 14.7485 23.304C16.8927 23.1315 18.9114 22.2236 20.4633 20.734L21.6276 22.8282C19.5103 24.6628 16.8015 25.6709 13.9999 25.6667C7.55642 25.6667 2.33325 20.4435 2.33325 14C2.33325 7.5565 7.55642 2.33333 13.9999 2.33333ZM13.9999 8.16667C14.9282 8.16667 15.8184 8.53541 16.4748 9.19179C17.1312 9.84817 17.4999 10.7384 17.4999 11.6667V12.8333H18.6666V18.6667H9.33325V12.8333H10.4999V11.6667C10.4999 10.7384 10.8687 9.84817 11.525 9.19179C12.1814 8.53541 13.0717 8.16667 13.9999 8.16667ZM13.9999 10.5C13.7142 10.5 13.4384 10.6049 13.2248 10.7948C13.0113 10.9847 12.8749 11.2464 12.8414 11.5302L12.8333 11.6667V12.8333H15.1666V11.6667C15.1665 11.3809 15.0616 11.1051 14.8718 10.8916C14.6819 10.678 14.4202 10.5416 14.1364 10.5082L13.9999 10.5Z" fill="#00473C"/>
</svg>
