<svg width="28" height="26" viewBox="0 0 28 26" fill="none" xmlns="http://www.w3.org/2000/svg">
<path d="M22.1666 10.5C22.9448 11.7367 23.3333 13.293 23.3333 15.1667C23.3333 18.6667 19.2499 19.8333 17.4999 25.6667C16.7218 24.9958 16.3333 24.024 16.3333 22.75C16.3333 18.6877 22.1666 16.5783 22.1666 10.5ZM16.9166 5.83333C17.6913 7.26618 18.0926 8.87114 18.0833 10.5C18.0833 16.3333 11.0833 17.5 13.4166 25.6667C11.4718 24.3133 10.4999 22.3685 10.4999 19.8333C10.4999 15.9542 16.9166 12.8333 16.9166 5.83333ZM11.6666 1.16667C12.4448 2.72183 12.8333 4.47183 12.8333 6.41667C12.8333 13.4167 2.33325 15.1667 9.33325 25.6667C6.41659 25.0833 4.08325 22.1667 4.08325 18.6667C4.08325 11.0833 11.6666 9.91667 11.6666 1.16667Z" fill="#00473C"/>
</svg>
