<svg width="28" height="28" viewBox="0 0 28 28" fill="none" xmlns="http://www.w3.org/2000/svg">
<path d="M17.0333 9.33333H24.5C25.1188 9.33333 25.7123 9.57917 26.1499 10.0168C26.5875 10.4543 26.8333 11.0478 26.8333 11.6667V14.1213C26.8336 14.4263 26.7742 14.7283 26.6583 15.0103L23.0475 23.7778C22.9594 23.9916 22.8098 24.1744 22.6176 24.3029C22.4255 24.4315 22.1995 24.5001 21.9683 24.5H2.33329C2.02387 24.5 1.72713 24.3771 1.50833 24.1583C1.28954 23.9395 1.16663 23.6428 1.16663 23.3333V11.6667C1.16663 11.3572 1.28954 11.0605 1.50833 10.8417C1.72713 10.6229 2.02387 10.5 2.33329 10.5H6.39563C6.5824 10.5 6.76647 10.4552 6.93233 10.3694C7.0982 10.2835 7.24102 10.159 7.34879 10.0065L13.7106 0.991666C13.791 0.877698 13.9096 0.79632 14.0449 0.762288C14.1802 0.728256 14.3232 0.743823 14.448 0.806166L16.5643 1.86433C17.1599 2.16202 17.6357 2.65453 17.9126 3.26003C18.1896 3.86554 18.2511 4.54758 18.0868 5.19283L17.0333 9.33333ZM8.16663 12.3527V22.1667H21.1866L24.5 14.1213V11.6667H17.0333C16.6779 11.6666 16.3273 11.5854 16.0081 11.4292C15.6889 11.273 15.4096 11.046 15.1914 10.7654C14.9733 10.4848 14.8222 10.1582 14.7496 9.81029C14.6769 9.46243 14.6847 9.10257 14.7723 8.75817L15.8258 4.61883C15.8588 4.48971 15.8465 4.3532 15.7911 4.232C15.7357 4.1108 15.6405 4.01222 15.5213 3.95267L14.7501 3.56767L9.25513 11.3517C8.96346 11.7647 8.59013 12.103 8.16663 12.3527ZM5.83329 12.8333H3.49996V22.1667H5.83329V12.8333Z" fill="#00473C"/>
</svg>
