<svg width="20" height="23" viewBox="0 0 20 23" fill="none" xmlns="http://www.w3.org/2000/svg">
<path d="M13 10.5L14 16.5M7 10.5L6 16.5M7 5.5V4.5C7 3.70435 7.31607 2.94129 7.87868 2.37868C8.44129 1.81607 9.20435 1.5 10 1.5C10.7956 1.5 11.5587 1.81607 12.1213 2.37868C12.6839 2.94129 13 3.70435 13 4.5V5.5" stroke="#4CAF50" stroke-width="1.5" stroke-linecap="round"/>
<path d="M18.2241 12.026C17.6381 8.905 17.3461 7.344 16.2341 6.422C15.1251 5.5 13.5371 5.5 10.3601 5.5H9.64007C6.46407 5.5 4.87607 5.5 3.76507 6.422C2.65507 7.344 2.36207 8.905 1.77607 12.026C0.953067 16.415 0.542067 18.609 1.74207 20.055C2.94207 21.5 5.17407 21.5 9.63907 21.5H10.3611C14.8261 21.5 17.0591 21.5 18.2581 20.055C18.9541 19.215 19.1081 18.125 18.9541 16.5" stroke="#4CAF50" stroke-width="1.5" stroke-linecap="round"/>
</svg>
