<svg width="24" height="25" viewBox="0 0 24 25" fill="none" xmlns="http://www.w3.org/2000/svg">
<path fill-rule="evenodd" clip-rule="evenodd" d="M16.9999 4.5C17.7629 4.5 18.3939 4.934 18.8559 5.39C19.3369 5.863 19.7779 6.499 20.1699 7.2C20.9569 8.606 21.6419 10.443 22.0949 12.258C22.5449 14.059 22.7939 15.94 22.6349 17.419C22.4749 18.904 21.7099 20.5 19.9999 20.5C18.5239 20.5 17.3479 19.74 16.3859 18.969L16.0349 18.68L15.5429 18.265L15.0989 17.897C14.0799 17.072 13.1749 16.5 11.9999 16.5C10.8249 16.5 9.91988 17.072 8.90088 17.897L8.45688 18.265L7.96488 18.68L7.61488 18.969C6.65088 19.74 5.47488 20.5 3.99988 20.5C2.28888 20.5 1.52388 18.904 1.36488 17.419C1.20688 15.939 1.45488 14.059 1.90488 12.258C2.35788 10.443 3.04288 8.606 3.82988 7.199C4.22188 6.499 4.66288 5.863 5.14388 5.389C5.60588 4.934 6.23688 4.5 6.99988 4.5C7.51488 4.5 8.01788 4.623 8.51288 4.77L9.10488 4.951C9.20388 4.981 9.30188 5.011 9.39988 5.038C10.2649 5.286 11.1499 5.5 11.9999 5.5C12.8499 5.5 13.7349 5.286 14.5999 5.038L15.4849 4.771C15.9829 4.624 16.4899 4.5 16.9999 4.5ZM16.9999 6.5C16.6169 6.5 16.2169 6.616 15.8289 6.743L15.3709 6.894C15.2976 6.91784 15.2239 6.94051 15.1499 6.962C14.2649 7.214 13.1499 7.5 11.9999 7.5C10.8499 7.5 9.73488 7.214 8.84988 6.962L8.62988 6.894L8.17088 6.743C7.78288 6.615 7.38288 6.5 6.99988 6.5C6.58188 6.578 6.20688 7.085 5.92388 7.555L5.76588 7.83L5.57588 8.176C4.89388 9.394 4.26588 11.056 3.84588 12.743C3.45088 14.319 3.25888 15.829 3.33188 16.953L3.35788 17.246L3.37788 17.422L3.40788 17.63C3.47688 18.031 3.62588 18.5 3.99988 18.5C4.81188 18.5 5.48988 18.096 6.33288 17.426L6.73588 17.098L7.49588 16.462L7.83988 16.182C8.90388 15.339 10.2349 14.5 11.9999 14.5C13.7649 14.5 15.0959 15.34 16.1599 16.182L16.5049 16.462L17.2649 17.098L17.6669 17.426C18.5099 18.096 19.1869 18.5 19.9999 18.5C20.3399 18.5 20.4939 18.113 20.5709 17.741L20.6089 17.523L20.6459 17.206C20.7689 16.06 20.5789 14.441 20.1549 12.743C19.7689 11.197 19.2089 9.671 18.5929 8.489L18.2339 7.829L18.0759 7.556C17.7929 7.085 17.4179 6.578 16.9999 6.5ZM8.49988 8.5C9.16292 8.5 9.79881 8.76339 10.2676 9.23223C10.7365 9.70107 10.9999 10.337 10.9999 11C10.9999 11.663 10.7365 12.2989 10.2676 12.7678C9.79881 13.2366 9.16292 13.5 8.49988 13.5C7.83684 13.5 7.20095 13.2366 6.73211 12.7678C6.26327 12.2989 5.99988 11.663 5.99988 11C5.99988 10.337 6.26327 9.70107 6.73211 9.23223C7.20095 8.76339 7.83684 8.5 8.49988 8.5ZM15.4999 8.5C15.7448 8.50003 15.9812 8.58996 16.1643 8.75272C16.3473 8.91547 16.4642 9.13975 16.4929 9.383L16.4999 9.5V10H16.9999C17.2548 10.0003 17.4999 10.0979 17.6852 10.2728C17.8706 10.4478 17.9821 10.687 17.9971 10.9414C18.012 11.1958 17.9292 11.4464 17.7656 11.6418C17.602 11.8373 17.37 11.9629 17.1169 11.993L16.9999 12H16.4999V12.5C16.4996 12.7549 16.402 13 16.227 13.1854C16.0521 13.3707 15.8129 13.4822 15.5585 13.4972C15.304 13.5121 15.0535 13.4293 14.858 13.2657C14.6626 13.1021 14.537 12.8701 14.5069 12.617L14.4999 12.5V12H13.9999C13.745 11.9997 13.4998 11.9021 13.3145 11.7272C13.1292 11.5522 13.0176 11.313 13.0027 11.0586C12.9878 10.8042 13.0706 10.5536 13.2341 10.3582C13.3977 10.1627 13.6298 10.0371 13.8829 10.007L13.9999 10H14.4999V9.5C14.4999 9.23478 14.6052 8.98043 14.7928 8.79289C14.9803 8.60536 15.2347 8.5 15.4999 8.5ZM8.49988 10.5C8.36727 10.5 8.24009 10.5527 8.14633 10.6464C8.05256 10.7402 7.99988 10.8674 7.99988 11C7.99988 11.1326 8.05256 11.2598 8.14633 11.3536C8.24009 11.4473 8.36727 11.5 8.49988 11.5C8.63249 11.5 8.75967 11.4473 8.85343 11.3536C8.9472 11.2598 8.99988 11.1326 8.99988 11C8.99988 10.8674 8.9472 10.7402 8.85343 10.6464C8.75967 10.5527 8.63249 10.5 8.49988 10.5Z" fill="#4CAF50"/>
</svg>
