<svg width="24" height="25" viewBox="0 0 24 25" fill="none" xmlns="http://www.w3.org/2000/svg">
<path d="M11.9999 8.5C13.0608 8.5 14.0782 8.92143 14.8283 9.67157C15.5785 10.4217 15.9999 11.4391 15.9999 12.5C15.9999 13.5609 15.5785 14.5783 14.8283 15.3284C14.0782 16.0786 13.0608 16.5 11.9999 16.5C10.939 16.5 9.92161 16.0786 9.17147 15.3284C8.42132 14.5783 7.99989 13.5609 7.99989 12.5C7.99989 11.4391 8.42132 10.4217 9.17147 9.67157C9.92161 8.92143 10.939 8.5 11.9999 8.5ZM11.9999 10.5C11.4695 10.5 10.9608 10.7107 10.5857 11.0858C10.2106 11.4609 9.99989 11.9696 9.99989 12.5C9.99989 13.0304 10.2106 13.5391 10.5857 13.9142C10.9608 14.2893 11.4695 14.5 11.9999 14.5C12.5303 14.5 13.039 14.2893 13.4141 13.9142C13.7892 13.5391 13.9999 13.0304 13.9999 12.5C13.9999 11.9696 13.7892 11.4609 13.4141 11.0858C13.039 10.7107 12.5303 10.5 11.9999 10.5ZM9.99989 22.5C9.74989 22.5 9.53989 22.32 9.49989 22.08L9.12989 19.43C8.49989 19.18 7.95989 18.84 7.43989 18.44L4.94989 19.45C4.72989 19.53 4.45989 19.45 4.33989 19.23L2.33989 15.77C2.27869 15.667 2.25711 15.5452 2.2792 15.4274C2.30128 15.3096 2.36552 15.2039 2.45989 15.13L4.56989 13.47L4.49989 12.5L4.56989 11.5L2.45989 9.87C2.36552 9.79613 2.30128 9.69042 2.2792 9.57263C2.25711 9.45484 2.27869 9.33304 2.33989 9.23L4.33989 5.77C4.45989 5.55 4.72989 5.46 4.94989 5.55L7.43989 6.55C7.95989 6.16 8.49989 5.82 9.12989 5.57L9.49989 2.92C9.53989 2.68 9.74989 2.5 9.99989 2.5H13.9999C14.2499 2.5 14.4599 2.68 14.4999 2.92L14.8699 5.57C15.4999 5.82 16.0399 6.16 16.5599 6.55L19.0499 5.55C19.2699 5.46 19.5399 5.55 19.6599 5.77L21.6599 9.23C21.7899 9.45 21.7299 9.72 21.5399 9.87L19.4299 11.5L19.4999 12.5L19.4299 13.5L21.5399 15.13C21.7299 15.28 21.7899 15.55 21.6599 15.77L19.6599 19.23C19.5399 19.45 19.2699 19.54 19.0499 19.45L16.5599 18.45C16.0399 18.84 15.4999 19.18 14.8699 19.43L14.4999 22.08C14.4599 22.32 14.2499 22.5 13.9999 22.5H9.99989ZM11.2499 4.5L10.8799 7.11C9.67989 7.36 8.61989 8 7.84989 8.89L5.43989 7.85L4.68989 9.15L6.79989 10.7C6.39989 11.8667 6.39989 13.1333 6.79989 14.3L4.67989 15.86L5.42989 17.16L7.85989 16.12C8.62989 17 9.67989 17.64 10.8699 17.88L11.2399 20.5H12.7599L13.1299 17.89C14.3199 17.64 15.3699 17 16.1399 16.12L18.5699 17.16L19.3199 15.86L17.1999 14.31C17.5999 13.14 17.5999 11.87 17.1999 10.7L19.3099 9.15L18.5599 7.85L16.1499 8.89C15.3641 7.98032 14.2982 7.35767 13.1199 7.12L12.7499 4.5H11.2499Z" fill="#4CAF50"/>
</svg>
